# xmcd
#
# Track frame offsets:
#	150
#	13935
#	27680
#	42835
#	56520
#	71377
#	86467
#	99982
#	113162
#	127195
#	140730
#	153247
#	167505
#	181337
#	193700
#	207517
#	222920
#	237270
#	250682
#	262312
#	277132
#	291260
#	304122
#	319937
#
# Disc length: 4460 seconds
#
# Revision: 1
# Processed by: cddbd v1.5.1PL0 Copyright (c) Steve Scherf et al.
# Submitted via: audiograbber 1.83.01
#
DISCID=70116a18
DTITLE=Female Blues Singers - Complete Recorded Works - 1997 - Vol 14 - S-T-U-W
DTITLE=Y (1923-1932) DOCD-5518
DYEAR=1997
DGENRE=Blues
TTITLE0=For Just A Little Love From You
TTITLE1=It's Bad For Your Soul
TTITLE2=Everybody Loves My Baby
TTITLE3=I'm Done Done Done With You
TTITLE4=Nobody Knows What A Red Head Mama Can Do
TTITLE5=Big Bad Bill Is Sweet William Now
TTITLE6=Nobody Knows The Way I Feel This Mornin'
TTITLE7=Jelly's Blues
TTITLE8=Good Man Blues
TTITLE9=Jackass Blues
TTITLE10=Mama Likes To Do It
TTITLE11=Back Water Blues
TTITLE12=Rough House Blues
TTITLE13=Mean Old Bed Bug Blues
TTITLE14=Loud And Wrong
TTITLE15=Baby Dear, I Don't Want No One But You
TTITLE16=Cold Rocks Was My Pillow
TTITLE17=Try Me Out And You Will See
TTITLE18=It's Too Slippery
TTITLE19=Old Commandment Blues - Part 1
TTITLE20=Empty Bed Blues - Part 1
TTITLE21=Empty Bed Blues - Part 2
TTITLE22=When They Get Lovin' They's Gone (Take 1 - Unissued)
TTITLE23=You Done Played Out Blues - (Take 1 - Unissued)
EXTD=Document Records, Austria
EXTT0=
EXTT1=
EXTT2=
EXTT3=
EXTT4=
EXTT5=
EXTT6=
EXTT7=
EXTT8=
EXTT9=
EXTT10=
EXTT11=
EXTT12=
EXTT13=
EXTT14=
EXTT15=
EXTT16=
EXTT17=
EXTT18=
EXTT19=
EXTT20=
EXTT21=
EXTT22=
EXTT23=
PLAYORDER=
